<?xml version="1.0" encoding="UTF-8" standalone="no"?>
<!-- Created with Inkscape (http://www.inkscape.org/) -->

<svg
   width="2470.0422"
   height="256.1582"
   viewBox="0 0 653.53197 67.775192"
   version="1.1"
   id="svg5"
   xml:space="preserve"
   sodipodi:docname="logo-1.svg"
   inkscape:export-filename="logo-4.svg"
   inkscape:export-xdpi="96.046646"
   inkscape:export-ydpi="96.046646"
   inkscape:version="1.2.2 (b0a8486541, 2022-12-01)"
   xmlns:inkscape="http://www.inkscape.org/namespaces/inkscape"
   xmlns:sodipodi="http://sodipodi.sourceforge.net/DTD/sodipodi-0.dtd"
   xmlns:xlink="http://www.w3.org/1999/xlink"
   xmlns="http://www.w3.org/2000/svg"
   xmlns:svg="http://www.w3.org/2000/svg"><sodipodi:namedview
     id="namedview7"
     pagecolor="#ffffff"
     bordercolor="#000000"
     borderopacity="0.25"
     inkscape:showpageshadow="2"
     inkscape:pageopacity="0.0"
     inkscape:pagecheckerboard="0"
     inkscape:deskcolor="#d1d1d1"
     inkscape:document-units="mm"
     showgrid="false"
     showguides="true"
     inkscape:zoom="0.98767759"
     inkscape:cx="734.55144"
     inkscape:cy="178.70204"
     inkscape:window-width="3840"
     inkscape:window-height="2083"
     inkscape:window-x="0"
     inkscape:window-y="0"
     inkscape:window-maximized="1"
     inkscape:current-layer="g5308" /><defs
     id="defs2"><linearGradient
       inkscape:collect="always"
       id="linearGradient31916"><stop
         style="stop-color:#5d85ff;stop-opacity:1;"
         offset="0"
         id="stop31912" /><stop
         style="stop-color:#ff5d5d;stop-opacity:0.9698419;"
         offset="1"
         id="stop31914" /></linearGradient><rect
       x="2592.2661"
       y="356.3703"
       width="2637.146"
       height="612.35956"
       id="rect28598" /><rect
       x="-394.31454"
       y="-57.615482"
       width="2813.3762"
       height="476.83652"
       id="rect28592" /><rect
       x="-131.67331"
       y="-155.36366"
       width="1973.3239"
       height="644.2196"
       id="rect460" /><rect
       x="1581.2109"
       y="417.81253"
       width="1562.7411"
       height="514.36554"
       id="rect454" /><rect
       x="-82.872757"
       y="-92.973785"
       width="2150.5586"
       height="494.35333"
       id="rect448" /><linearGradient
       inkscape:collect="always"
       xlink:href="#linearGradient31916"
       id="linearGradient31918"
       x1="255.89392"
       y1="150.3129"
       x2="321.38222"
       y2="150.3129"
       gradientUnits="userSpaceOnUse" /></defs><g
     inkscape:label="Layer 1"
     inkscape:groupmode="layer"
     id="layer1"
     transform="translate(-8.1742832,-30.5056)"><g
       id="g447"
       transform="matrix(0.89657953,0,0,0.89657953,-191.28699,-67.267473)"><g
         id="g470"><g
           id="g1957"
           style="stroke:#dedede;stroke-opacity:0.8557"><g
             id="g18281"
             transform="matrix(1.0246369,0,0,1.0246369,-6.7802655,-2.9227468)"><g
               id="g18907"><g
                 id="g371"
                 style="stroke:#aaacb2;stroke-opacity:0.917647"
                 transform="matrix(-1,0,0,1,800.19704,-4.9744)"><g
                   id="g5308"
                   style="stroke:#5d85ff;stroke-opacity:1"><path
                     id="path1503"
                     style="fill-opacity:0;stroke:url(#linearGradient31918);stroke-width:9.50424;stroke-dasharray:none;stroke-opacity:1"
                     d="m 316.6301,150.31291 a 27.992032,27.992032 0 0 1 -27.99203,27.99202 27.992032,27.992032 0 0 1 -27.99203,-27.99202 27.992032,27.992032 0 0 1 27.99203,-27.99204 27.992032,27.992032 0 0 1 27.99203,27.99204 z" /><path
                     id="rect3184-7"
                     style="fill:#5d85ff;fill-opacity:1;stroke:#5d85ff;stroke-width:0;stroke-dasharray:none;stroke-opacity:1"
                     d="m 319.02765,155.64103 h 37.45053 c 0.16388,0 0.29581,-0.24636 0.29581,-0.55239 v -9.55147 c 0,-0.30603 -0.13193,-0.55241 -0.29581,-0.55241 h -37.45053 c -0.16387,0 -0.29579,0.24638 -0.29579,0.55241 v 9.55147 c 0,0.30603 0.13193,0.55239 0.29579,0.55239 z" /><path
                     id="rect3184"
                     style="fill:#5d85ff;fill-opacity:1;stroke:#5d85ff;stroke-width:0;stroke-dasharray:none;stroke-opacity:1"
                     d="m 224.03301,144.98476 h 37.45053 c 0.16387,0 0.29581,0.24638 0.29581,0.5524 v 9.55146 c 0,0.30604 -0.13194,0.55241 -0.29581,0.55241 h -37.45053 c -0.16387,0 -0.2958,-0.24637 -0.2958,-0.55241 v -9.55146 c 0,-0.30602 0.13193,-0.5524 0.2958,-0.5524 z" /></g></g><g
                 aria-label="nodecosmos"
                 transform="matrix(-0.97233938,0,0,1.0284475,1117.5868,-6.5192381)"
                 id="text394"
                 style="font-size:89.0956px;font-family:Roboto;-inkscape-font-specification:Roboto;fill:#ff646e;stroke:#5d85ff;stroke-width:0;stroke-opacity:1;fill-opacity:1"><path
                   d="m 518.9933,147.33186 q 0,-10.1658 4.08968,-17.76093 4.20654,-7.59514 11.56798,-11.68482 7.47828,-4.08969 17.05983,-4.08969 12.26907,0 20.44844,6.42665 8.29623,6.42666 10.86689,18.11148 h -21.26638 q -2.6875,-7.47829 -10.39948,-7.47829 -5.49188,0 -8.76362,4.32339 -3.27175,4.20653 -3.27175,12.15221 0,7.94568 3.27175,12.26907 3.27174,4.20653 8.76362,4.20653 7.71198,0 10.39948,-7.47829 h 21.26638 q -2.57066,11.45113 -10.86689,17.99463 -8.29622,6.54349 -20.44844,6.54349 -9.58155,0 -17.05983,-4.08968 -7.36144,-4.08969 -11.56798,-11.68482 -4.08968,-7.59514 -4.08968,-17.76093 z"
                   style="font-weight:bold;font-family:Poppins;-inkscape-font-specification:'Poppins Bold';stroke-width:0;stroke:#5d85ff;stroke-opacity:1;fill:#ff646e;fill-opacity:1"
                   id="path28577" /></g><text
                 xml:space="preserve"
                 transform="matrix(0.28800742,0,0,0.28800742,223.73721,109.28158)"
                 id="text28590"
                 style="font-style:normal;font-variant:normal;font-weight:bold;font-stretch:normal;font-size:293.333px;font-family:Poppins;-inkscape-font-specification:'Poppins Bold';white-space:pre;shape-inside:url(#rect28592);fill:#aaacb2;fill-opacity:1;stroke:none;stroke-width:33;stroke-dasharray:none;stroke-opacity:1" /><text
                 xml:space="preserve"
                 transform="matrix(0.28800742,0,0,0.28800742,223.73721,109.28158)"
                 id="text28596"
                 style="font-style:normal;font-variant:normal;font-weight:bold;font-stretch:normal;font-size:293.333px;font-family:Poppins;-inkscape-font-specification:'Poppins Bold';white-space:pre;shape-inside:url(#rect28598);fill:#aaacb2;fill-opacity:1;stroke:none;stroke-width:33;stroke-dasharray:none;stroke-opacity:1" /></g></g></g></g><text
         xml:space="preserve"
         transform="matrix(0.29510303,0,0,0.29510303,227.29382,118.63208)"
         id="text446"
         style="font-style:normal;font-variant:normal;font-weight:normal;font-stretch:normal;font-family:'sans serif';-inkscape-font-specification:'sans serif';white-space:pre;shape-inside:url(#rect448);fill:#bbbbbb;stroke:#bbbbbb;stroke-width:0" /><text
         xml:space="preserve"
         transform="matrix(0.29510303,0,0,0.29510303,227.29382,118.63208)"
         id="text452"
         style="font-style:normal;font-variant:normal;font-weight:normal;font-stretch:normal;font-family:Ariel;-inkscape-font-specification:Ariel;white-space:pre;shape-inside:url(#rect454);fill:#bbbbbb;stroke:#bbbbbb;stroke-width:0" /><text
         xml:space="preserve"
         transform="matrix(0.29510303,0,0,0.29510303,227.29382,118.63208)"
         id="text458"
         style="font-style:normal;font-variant:normal;font-weight:normal;font-stretch:normal;font-family:Ariel;-inkscape-font-specification:Ariel;white-space:pre;shape-inside:url(#rect460);fill:#bbbbbb;stroke:#bbbbbb;stroke-width:0" /></g></g></svg>
