<?xml version="1.0" encoding="UTF-8" standalone="no"?>
<!-- Created with Inkscape (http://www.inkscape.org/) -->

<svg
   width="1525.2589"
   height="239.73848"
   viewBox="0 0 403.55807 63.430807"
   version="1.1"
   id="svg5"
   xml:space="preserve"
   xmlns="http://www.w3.org/2000/svg"
   xmlns:svg="http://www.w3.org/2000/svg"><defs
     id="defs2" /><g
     id="layer1"
     transform="translate(-11.441628,-36.484371)"><g
       id="g447"
       transform="matrix(0.89657953,0,0,0.89657953,-191.28699,-67.267473)"><g
         id="g470"><g
           id="g1957"
           style="stroke:#dedede;stroke-opacity:0.8557"><g
             id="g18281"
             transform="matrix(1.0246369,0,0,1.0246369,-6.7802655,-2.9227468)"><g
               id="g18907"><g
                 id="g371"
                 style="stroke:#aaacb2;stroke-opacity:0.917647"><g
                   id="g5308"
                   style="stroke:#aaacb2;stroke-opacity:0.917647"><path
                     id="path1503"
                     style="fill-opacity:0;stroke:#aaacb2;stroke-width:9.50424;stroke-dasharray:none;stroke-opacity:1"
                     d="m 316.6301,150.31291 a 27.992032,27.992032 0 0 1 -27.99203,27.99202 27.992032,27.992032 0 0 1 -27.99203,-27.99202 27.992032,27.992032 0 0 1 27.99203,-27.99204 27.992032,27.992032 0 0 1 27.99203,27.99204 z" /><path
                     id="rect3184-7"
                     style="fill:#aaacb2;fill-opacity:1;stroke:none;stroke-width:0;stroke-dasharray:none;stroke-opacity:0.917647"
                     d="m 319.02765,155.06502 h 37.45053 c 0.16388,0 0.29581,-0.21973 0.29581,-0.49268 v -8.51887 c 0,-0.27295 -0.13193,-0.49269 -0.29581,-0.49269 h -37.45053 c -0.16387,0 -0.29579,0.21974 -0.29579,0.49269 v 8.51887 c 0,0.27295 0.13193,0.49268 0.29579,0.49268 z" /></g></g><text
                 xml:space="preserve"
                 style="font-style:normal;font-variant:normal;font-weight:normal;font-stretch:normal;font-size:84.4822px;font-family:Roboto;-inkscape-font-specification:Roboto;fill:#aaacb2;fill-opacity:1;stroke:none;stroke-width:0;stroke-opacity:0.8557"
                 x="344.10434"
                 y="173.84296"
                 id="text394"><tspan
                   id="tspan392"
                   style="font-style:normal;font-variant:normal;font-weight:normal;font-stretch:normal;font-size:84.4822px;font-family:'DejaVu Sans';-inkscape-font-specification:'DejaVu Sans';fill:#aaacb2;fill-opacity:1;stroke:none;stroke-width:0;stroke-opacity:0.8557"
                   x="344.10434"
                   y="173.84296">cosmos</tspan></text></g></g></g></g></g></g></svg>
