<?xml version="1.0" encoding="UTF-8" standalone="no"?>
<!-- Created with Inkscape (http://www.inkscape.org/) -->

<svg
   width="1536.4747"
   height="175.3293"
   viewBox="0 0 406.52559 46.389211"
   version="1.1"
   id="svg5"
   xml:space="preserve"
   xmlns:xlink="http://www.w3.org/1999/xlink"
   xmlns="http://www.w3.org/2000/svg"
   xmlns:svg="http://www.w3.org/2000/svg"><defs
     id="defs2"><linearGradient
       id="linearGradient5560"><stop
         style="stop-color:#aaacb2;stop-opacity:1;"
         offset="0"
         id="stop15792" /><stop
         style="stop-color:#c3c4c9;stop-opacity:1;"
         offset="1"
         id="stop5558" /></linearGradient><linearGradient
       xlink:href="#linearGradient5560"
       id="linearGradient38239"
       gradientUnits="userSpaceOnUse"
       gradientTransform="matrix(0.80239034,0,0,0.80239034,-44.859655,30.859076)"
       x1="348.32846"
       y1="150.19485"
       x2="657.29333"
       y2="150.19485" /><linearGradient
       xlink:href="#linearGradient5560"
       id="linearGradient865"
       gradientUnits="userSpaceOnUse"
       gradientTransform="matrix(0.80239034,0,0,0.80239034,-44.859655,30.859076)"
       x1="348.32846"
       y1="150.19485"
       x2="657.29333"
       y2="150.19485" /><linearGradient
       xlink:href="#linearGradient5560"
       id="linearGradient867"
       gradientUnits="userSpaceOnUse"
       gradientTransform="matrix(0.80239034,0,0,0.80239034,-44.859655,30.859076)"
       x1="348.32846"
       y1="150.19485"
       x2="657.29333"
       y2="150.19485" /><linearGradient
       xlink:href="#linearGradient5560"
       id="linearGradient869"
       gradientUnits="userSpaceOnUse"
       gradientTransform="matrix(0.80239034,0,0,0.80239034,-44.859655,30.859076)"
       x1="348.32846"
       y1="150.19485"
       x2="657.29333"
       y2="150.19485" /><linearGradient
       xlink:href="#linearGradient5560"
       id="linearGradient871"
       gradientUnits="userSpaceOnUse"
       gradientTransform="matrix(0.80239034,0,0,0.80239034,-44.859655,30.859076)"
       x1="348.32846"
       y1="150.19485"
       x2="657.29333"
       y2="150.19485" /><linearGradient
       xlink:href="#linearGradient5560"
       id="linearGradient873"
       gradientUnits="userSpaceOnUse"
       gradientTransform="matrix(0.80239034,0,0,0.80239034,-44.859655,30.859076)"
       x1="348.32846"
       y1="150.19485"
       x2="657.29333"
       y2="150.19485" /><linearGradient
       xlink:href="#linearGradient5560"
       id="linearGradient875"
       gradientUnits="userSpaceOnUse"
       gradientTransform="matrix(0.80239034,0,0,0.80239034,-44.859655,30.859076)"
       x1="348.32846"
       y1="150.19485"
       x2="657.29333"
       y2="150.19485" /><linearGradient
       xlink:href="#linearGradient5560"
       id="linearGradient877"
       gradientUnits="userSpaceOnUse"
       gradientTransform="matrix(0.80239034,0,0,0.80239034,-44.859655,30.859076)"
       x1="348.32846"
       y1="150.19485"
       x2="657.29333"
       y2="150.19485" /><linearGradient
       xlink:href="#linearGradient5560"
       id="linearGradient879"
       gradientUnits="userSpaceOnUse"
       gradientTransform="matrix(0.80239034,0,0,0.80239034,-44.859655,30.859076)"
       x1="348.32846"
       y1="150.19485"
       x2="657.29333"
       y2="150.19485" /><linearGradient
       xlink:href="#linearGradient5560"
       id="linearGradient881"
       gradientUnits="userSpaceOnUse"
       gradientTransform="matrix(0.80239034,0,0,0.80239034,-44.859655,30.859076)"
       x1="348.32846"
       y1="150.19485"
       x2="657.29333"
       y2="150.19485" /><linearGradient
       xlink:href="#linearGradient5560"
       id="linearGradient883"
       gradientUnits="userSpaceOnUse"
       gradientTransform="matrix(0.80239034,0,0,0.80239034,-44.859655,30.859076)"
       x1="348.32846"
       y1="150.19485"
       x2="657.29333"
       y2="150.19485" /></defs><g
     id="layer1"
     transform="translate(-19.888838,-39.365055)"><g
       id="g447"
       transform="matrix(0.89657953,0,0,0.89657953,-191.28699,-67.267473)"><g
         id="g470"><g
           id="g1957"
           style="stroke:#dedede;stroke-opacity:0.8557"><g
             aria-label="nodecosmos"
             id="text394"
             style="font-size:69.1714px;fill:url(#linearGradient38239);stroke:none;stroke-width:0"><path
               d="m 259.05324,131.10676 q 6.7788,0 10.79074,4.42697 4.08111,4.3578 4.08111,12.03582 v 22.54988 H 262.16595 V 149.1605 q 0,-3.8736 -2.00597,-6.01792 -2.00597,-2.14431 -5.39537,-2.14431 -3.38939,0 -5.39536,2.14431 -2.00598,2.14432 -2.00598,6.01792 v 20.95893 h -11.82831 v -38.59764 h 11.82831 v 5.11868 q 1.79846,-2.55934 4.842,-4.01194 3.04354,-1.52177 6.84797,-1.52177 z"
               style="font-weight:bold;font-family:Poppins;-inkscape-font-specification:'Poppins Bold';fill:url(#linearGradient865)"
               id="path605" /><path
               d="m 299.72601,170.6728 q -5.67205,0 -10.23737,-2.421 -4.49614,-2.421 -7.12465,-6.91714 -2.55934,-4.49614 -2.55934,-10.51405 0,-5.94874 2.62851,-10.44488 2.62851,-4.56531 7.19383,-6.98631 4.56531,-2.421 10.23736,-2.421 5.67206,0 10.23737,2.421 4.56531,2.421 7.19383,6.98631 2.62851,4.49614 2.62851,10.44488 0,5.94874 -2.69768,10.51405 -2.62852,4.49614 -7.263,6.91714 -4.56531,2.421 -10.23737,2.421 z m 0,-10.23737 q 3.3894,0 5.74123,-2.49017 2.421,-2.49017 2.421,-7.12465 0,-4.63448 -2.35183,-7.12466 -2.28266,-2.49017 -5.67206,-2.49017 -3.45857,0 -5.74122,2.49017 -2.28266,2.421 -2.28266,7.12466 0,4.63448 2.21349,7.12465 2.28265,2.49017 5.67205,2.49017 z"
               style="font-weight:bold;font-family:Poppins;-inkscape-font-specification:'Poppins Bold';fill:url(#linearGradient867)"
               id="path607" /><path
               d="m 323.86677,150.75144 q 0,-5.94874 2.21348,-10.44488 2.28266,-4.49614 6.15626,-6.91714 3.8736,-2.421 8.64642,-2.421 3.80443,0 6.91714,1.59094 3.18189,1.59094 4.98035,4.28863 v -17.9154 h 11.8283 v 51.18684 h -11.8283 v -5.53371 q -1.66012,2.76685 -4.77283,4.42697 -3.04354,1.66011 -7.12466,1.66011 -4.77282,0 -8.64642,-2.421 -3.8736,-2.49017 -6.15626,-6.98631 -2.21348,-4.56531 -2.21348,-10.51405 z m 28.91365,0.0692 q 0,-4.42697 -2.49018,-6.98631 -2.42099,-2.55934 -5.94874,-2.55934 -3.52774,0 -6.01791,2.55934 -2.421,2.49017 -2.421,6.91714 0,4.42697 2.421,7.05548 2.49017,2.55934 6.01791,2.55934 3.52775,0 5.94874,-2.55934 2.49018,-2.55934 2.49018,-6.98631 z"
               style="font-weight:bold;font-family:Poppins;-inkscape-font-specification:'Poppins Bold';fill:url(#linearGradient869)"
               id="path609" /><path
               d="m 409.5702,150.19807 q 0,1.66011 -0.20751,3.45857 h -26.76934 q 0.27669,3.59691 2.28266,5.53371 2.07514,1.86763 5.04951,1.86763 4.42697,0 6.15626,-3.73526 h 12.58919 q -0.9684,3.80443 -3.52774,6.84797 -2.49017,3.04354 -6.2946,4.77283 -3.80442,1.72928 -8.50808,1.72928 -5.67206,0 -10.09902,-2.421 -4.42697,-2.421 -6.91715,-6.91714 -2.49017,-4.49614 -2.49017,-10.51405 0,-6.01791 2.421,-10.51405 2.49017,-4.49614 6.91714,-6.91714 4.42697,-2.421 10.1682,-2.421 5.60288,0 9.96068,2.35182 4.3578,2.35183 6.7788,6.70963 2.49017,4.3578 2.49017,10.1682 z m -12.105,-3.11272 q 0,-3.04354 -2.07514,-4.84199 -2.07514,-1.79846 -5.18785,-1.79846 -2.97437,0 -5.04952,1.72928 -2.00597,1.72929 -2.49017,4.91117 z"
               style="font-weight:bold;font-family:Poppins;-inkscape-font-specification:'Poppins Bold';fill:url(#linearGradient871)"
               id="path611" /><path
               d="m 413.44374,150.82061 q 0,-6.01791 2.421,-10.51405 2.49017,-4.49614 6.84797,-6.91714 4.42697,-2.421 10.09902,-2.421 7.263,0 12.105,3.80442 4.91117,3.80443 6.43294,10.72157 h -12.58919 q -1.59095,-4.42697 -6.15626,-4.42697 -3.25106,0 -5.18785,2.55934 -1.9368,2.49017 -1.9368,7.19383 0,4.70365 1.9368,7.263 1.93679,2.49017 5.18785,2.49017 4.56531,0 6.15626,-4.42697 h 12.58919 q -1.52177,6.77879 -6.43294,10.65239 -4.91117,3.8736 -12.105,3.8736 -5.67205,0 -10.09902,-2.421 -4.3578,-2.421 -6.84797,-6.91714 -2.421,-4.49614 -2.421,-10.51405 z"
               style="font-weight:bold;font-family:Poppins;-inkscape-font-specification:'Poppins Bold';fill:url(#linearGradient873)"
               id="path613" /><path
               d="m 475.21377,170.6728 q -5.67206,0 -10.23737,-2.421 -4.49614,-2.421 -7.12465,-6.91714 -2.55934,-4.49614 -2.55934,-10.51405 0,-5.94874 2.62851,-10.44488 2.62851,-4.56531 7.19382,-6.98631 4.56532,-2.421 10.23737,-2.421 5.67206,0 10.23737,2.421 4.56531,2.421 7.19383,6.98631 2.62851,4.49614 2.62851,10.44488 0,5.94874 -2.69769,10.51405 -2.62851,4.49614 -7.26299,6.91714 -4.56532,2.421 -10.23737,2.421 z m 0,-10.23737 q 3.3894,0 5.74123,-2.49017 2.42099,-2.49017 2.42099,-7.12465 0,-4.63448 -2.35182,-7.12466 -2.28266,-2.49017 -5.67206,-2.49017 -3.45857,0 -5.74122,2.49017 -2.28266,2.421 -2.28266,7.12466 0,4.63448 2.21348,7.12465 2.28266,2.49017 5.67206,2.49017 z"
               style="font-weight:bold;font-family:Poppins;-inkscape-font-specification:'Poppins Bold';fill:url(#linearGradient875)"
               id="path615" /><path
               d="m 517.40826,170.6728 q -5.04951,0 -8.99228,-1.72928 -3.94277,-1.72929 -6.22543,-4.70366 -2.28265,-3.04354 -2.55934,-6.7788 h 11.68997 q 0.20751,2.00597 1.86762,3.25106 1.66012,1.24509 4.08112,1.24509 2.21348,0 3.3894,-0.83006 1.24508,-0.89923 1.24508,-2.28266 0,-1.66011 -1.72928,-2.421 -1.72929,-0.83005 -5.60289,-1.79845 -4.15028,-0.9684 -6.91714,-2.00597 -2.76685,-1.10675 -4.77282,-3.3894 -2.00598,-2.35183 -2.00598,-6.2946 0,-3.32023 1.79846,-6.01791 1.86763,-2.76686 5.39537,-4.3578 3.59691,-1.59094 8.50808,-1.59094 7.263,0 11.41328,3.59691 4.21946,3.59691 4.842,9.54565 H 521.9044 q -0.27668,-2.00597 -1.79846,-3.18188 -1.45259,-1.17591 -3.87359,-1.17591 -2.07515,0 -3.18189,0.83005 -1.10674,0.76089 -1.10674,2.14432 0,1.66011 1.72928,2.49017 1.79846,0.83005 5.53372,1.66011 4.28862,1.10674 6.98631,2.21348 2.69768,1.03758 4.70365,3.45857 2.07515,2.35183 2.14432,6.36377 0,3.3894 -1.9368,6.08709 -1.86763,2.62851 -5.46454,4.15028 -3.52774,1.52177 -8.2314,1.52177 z"
               style="font-weight:bold;font-family:Poppins;-inkscape-font-specification:'Poppins Bold';fill:url(#linearGradient877)"
               id="path617" /><path
               d="m 589.55408,131.10676 q 7.19382,0 11.41328,4.3578 4.28862,4.3578 4.28862,12.10499 v 22.54988 H 593.49685 V 149.1605 q 0,-3.73526 -2.00597,-5.74123 -1.9368,-2.07514 -5.39537,-2.07514 -3.45857,0 -5.46454,2.07514 -1.9368,2.00597 -1.9368,5.74123 v 20.95893 H 566.93503 V 149.1605 q 0,-3.73526 -2.00597,-5.74123 -1.9368,-2.07514 -5.39537,-2.07514 -3.45857,0 -5.46454,2.07514 -1.9368,2.00597 -1.9368,5.74123 v 20.95893 h -11.82831 v -38.59764 h 11.82831 v 4.842 q 1.79845,-2.421 4.70365,-3.80443 2.9052,-1.4526 6.57129,-1.4526 4.35779,0 7.74719,1.86763 3.45857,1.86763 5.39537,5.3262 2.00597,-3.18189 5.46454,-5.18786 3.45857,-2.00597 7.53969,-2.00597 z"
               style="font-weight:bold;font-family:Poppins;-inkscape-font-specification:'Poppins Bold';fill:url(#linearGradient879)"
               id="path619" /><path
               d="m 631.12611,170.6728 q -5.67206,0 -10.23737,-2.421 -4.49614,-2.421 -7.12465,-6.91714 -2.55935,-4.49614 -2.55935,-10.51405 0,-5.94874 2.62852,-10.44488 2.62851,-4.56531 7.19382,-6.98631 4.56532,-2.421 10.23737,-2.421 5.67206,0 10.23737,2.421 4.56531,2.421 7.19382,6.98631 2.62852,4.49614 2.62852,10.44488 0,5.94874 -2.69769,10.51405 -2.62851,4.49614 -7.263,6.91714 -4.56531,2.421 -10.23736,2.421 z m 0,-10.23737 q 3.3894,0 5.74122,-2.49017 2.421,-2.49017 2.421,-7.12465 0,-4.63448 -2.35182,-7.12466 -2.28266,-2.49017 -5.67206,-2.49017 -3.45857,0 -5.74123,2.49017 -2.28265,2.421 -2.28265,7.12466 0,4.63448 2.21348,7.12465 2.28266,2.49017 5.67206,2.49017 z"
               style="font-weight:bold;font-family:Poppins;-inkscape-font-specification:'Poppins Bold';fill:url(#linearGradient881)"
               id="path621" /><path
               d="m 673.32058,170.6728 q -5.04951,0 -8.99228,-1.72928 -3.94277,-1.72929 -6.22543,-4.70366 -2.28265,-3.04354 -2.55934,-6.7788 h 11.68997 q 0.20751,2.00597 1.86763,3.25106 1.66011,1.24509 4.08111,1.24509 2.21348,0 3.3894,-0.83006 1.24508,-0.89923 1.24508,-2.28266 0,-1.66011 -1.72928,-2.421 -1.72929,-0.83005 -5.60288,-1.79845 -4.15029,-0.9684 -6.91714,-2.00597 -2.76686,-1.10675 -4.77283,-3.3894 -2.00597,-2.35183 -2.00597,-6.2946 0,-3.32023 1.79845,-6.01791 1.86763,-2.76686 5.39537,-4.3578 3.59692,-1.59094 8.50809,-1.59094 7.26299,0 11.41328,3.59691 4.21945,3.59691 4.842,9.54565 h -10.92909 q -0.27668,-2.00597 -1.79845,-3.18188 -1.4526,-1.17591 -3.8736,-1.17591 -2.07514,0 -3.18189,0.83005 -1.10674,0.76089 -1.10674,2.14432 0,1.66011 1.72929,2.49017 1.79845,0.83005 5.53371,1.66011 4.28863,1.10674 6.98631,2.21348 2.69769,1.03758 4.70366,3.45857 2.07514,2.35183 2.14431,6.36377 0,3.3894 -1.9368,6.08709 -1.86763,2.62851 -5.46454,4.15028 -3.52774,1.52177 -8.2314,1.52177 z"
               style="font-weight:bold;font-family:Poppins;-inkscape-font-specification:'Poppins Bold';fill:url(#linearGradient883)"
               id="path623" /></g></g></g></g></g></svg>
