<?xml version="1.0" encoding="UTF-8" standalone="no"?>
<!-- Created with Inkscape (http://www.inkscape.org/) -->

<svg
   width="1429.3641"
   height="214.71024"
   viewBox="0 0 378.18591 56.80875"
   version="1.1"
   id="svg5"
   xml:space="preserve"
   xmlns="http://www.w3.org/2000/svg"
   xmlns:svg="http://www.w3.org/2000/svg"><defs
     id="defs2"><rect
       x="-90.185524"
       y="-110.439"
       width="1976.8438"
       height="530.34766"
       id="rect1088" /><rect
       x="-131.67331"
       y="-155.36366"
       width="1973.3239"
       height="644.2196"
       id="rect460" /><rect
       x="1581.2109"
       y="417.81253"
       width="1562.7411"
       height="514.36554"
       id="rect454" /><rect
       x="-82.872757"
       y="-92.973785"
       width="2150.5586"
       height="494.35333"
       id="rect448" /></defs><g
     id="layer1"
     transform="translate(-12.499996,-39.095621)"><g
       id="g447"
       transform="matrix(0.89657953,0,0,0.89657953,-191.28699,-67.267473)"><g
         id="g470"><g
           id="g371"><path
             id="path1503"
             style="fill-opacity:0;stroke:#bbbbbb;stroke-width:7.37758;stroke-dasharray:none;stroke-opacity:1"
             d="m 316.6301,150.31291 a 27.992032,27.992032 0 0 1 -27.99203,27.99202 27.992032,27.992032 0 0 1 -27.99203,-27.99202 27.992032,27.992032 0 0 1 27.99203,-27.99204 27.992032,27.992032 0 0 1 27.99203,27.99204 z" /><path
             id="rect3184"
             style="fill:#bbbbbb;fill-opacity:1;stroke-width:0.562616"
             d="m 227.53681,146.40917 h 30.76448 c 0.13462,0 0.243,0.18051 0.243,0.40472 v 6.998 c 0,0.22422 -0.10838,0.40473 -0.243,0.40473 h -30.76448 c -0.13461,0 -0.24299,-0.18051 -0.24299,-0.40473 v -6.998 c 0,-0.22421 0.10838,-0.40472 0.24299,-0.40472 z" /><path
             id="rect3184-7"
             style="fill:#bbbbbb;fill-opacity:1;stroke-width:0.562616"
             d="m 318.97484,146.40917 h 30.76448 c 0.13462,0 0.243,0.18051 0.243,0.40472 v 6.998 c 0,0.22422 -0.10838,0.40473 -0.243,0.40473 h -30.76448 c -0.13461,0 -0.24298,-0.18051 -0.24298,-0.40473 v -6.998 c 0,-0.22421 0.10838,-0.40472 0.24298,-0.40472 z" /></g><text
           xml:space="preserve"
           style="font-size:86.2067px;fill:#bbbbbb;stroke:#bbbbbb;stroke-width:0"
           x="344.10434"
           y="173.55687"
           id="text394"><tspan
             id="tspan392"
             style="font-style:normal;font-variant:normal;font-weight:normal;font-stretch:normal;font-family:sans-serif;-inkscape-font-specification:'sans-serif 300';stroke-width:0"
             x="344.10434"
             y="173.55687">cosmos</tspan></text><text
           xml:space="preserve"
           transform="matrix(0.29510303,0,0,0.29510303,227.29382,118.63208)"
           id="text1086"
           style="font-style:normal;font-variant:normal;font-weight:normal;font-stretch:normal;font-family:sans-serif;-inkscape-font-specification:'sans-serif 300';white-space:pre;shape-inside:url(#rect1088);fill:#bbbbbb;stroke:#bbbbbb;stroke-width:0" /></g><text
         xml:space="preserve"
         transform="matrix(0.29510303,0,0,0.29510303,227.29382,118.63208)"
         id="text446"
         style="font-style:normal;font-variant:normal;font-weight:normal;font-stretch:normal;font-family:'sans serif';-inkscape-font-specification:'sans serif';white-space:pre;shape-inside:url(#rect448);fill:#bbbbbb;stroke:#bbbbbb;stroke-width:0" /><text
         xml:space="preserve"
         transform="matrix(0.29510303,0,0,0.29510303,227.29382,118.63208)"
         id="text452"
         style="font-style:normal;font-variant:normal;font-weight:normal;font-stretch:normal;font-family:sans-serif;-inkscape-font-specification:'sans-serif 300';white-space:pre;shape-inside:url(#rect454);fill:#bbbbbb;stroke:#bbbbbb;stroke-width:0" /><text
         xml:space="preserve"
         transform="matrix(0.29510303,0,0,0.29510303,227.29382,118.63208)"
         id="text458"
         style="font-style:normal;font-variant:normal;font-weight:normal;font-stretch:normal;font-family:sans-serif;-inkscape-font-specification:'sans-serif 300';white-space:pre;shape-inside:url(#rect460);fill:#bbbbbb;stroke:#bbbbbb;stroke-width:0" /></g></g></svg>
