<?xml version="1.0" encoding="UTF-8" standalone="no"?>
<!-- Created with Inkscape (http://www.inkscape.org/) -->

<svg
   width="415.74802"
   height="207.87404"
   viewBox="0 0 109.99999 55.000006"
   version="1.1"
   id="svg5"
   xml:space="preserve"
   sodipodi:docname="logo.svg"
   inkscape:export-filename="logo-1.svg"
   inkscape:export-xdpi="96"
   inkscape:export-ydpi="96"
   xmlns:inkscape="http://www.inkscape.org/namespaces/inkscape"
   xmlns:sodipodi="http://sodipodi.sourceforge.net/DTD/sodipodi-0.dtd"
   xmlns="http://www.w3.org/2000/svg"
   xmlns:svg="http://www.w3.org/2000/svg"><sodipodi:namedview
     id="namedview7"
     pagecolor="#ffffff"
     bordercolor="#000000"
     borderopacity="0.25"
     inkscape:showpageshadow="2"
     inkscape:pageopacity="0.0"
     inkscape:pagecheckerboard="0"
     inkscape:deskcolor="#d1d1d1"
     inkscape:document-units="mm"
     showgrid="false" /><defs
     id="defs2" /><g
     inkscape:label="Layer 1"
     inkscape:groupmode="layer"
     id="layer1"
     transform="translate(-12.499996,-39.999996)"><g
       id="g447"
       transform="matrix(0.89657953,0,0,0.89657953,-191.28699,-67.267473)"><g
         id="g371"><path
           id="path1503"
           style="fill-opacity:0;stroke:#bbbbbb;stroke-width:7.37758;stroke-dasharray:none;stroke-opacity:1"
           d="m 316.6301,150.31291 a 27.992032,27.992032 0 0 1 -27.99203,27.99202 27.992032,27.992032 0 0 1 -27.99203,-27.99202 27.992032,27.992032 0 0 1 27.99203,-27.99204 27.992032,27.992032 0 0 1 27.99203,27.99204 z" /><path
           id="rect3184"
           style="fill:#bbbbbb;fill-opacity:1;stroke-width:0.562616"
           d="m 227.53681,146.40917 h 30.76448 c 0.13462,0 0.243,0.18051 0.243,0.40472 v 6.998 c 0,0.22422 -0.10838,0.40473 -0.243,0.40473 h -30.76448 c -0.13461,0 -0.24299,-0.18051 -0.24299,-0.40473 v -6.998 c 0,-0.22421 0.10838,-0.40472 0.24299,-0.40472 z" /><path
           id="rect3184-7"
           style="fill:#bbbbbb;fill-opacity:1;stroke-width:0.562616"
           d="m 318.97484,146.40917 h 30.76448 c 0.13462,0 0.243,0.18051 0.243,0.40472 v 6.998 c 0,0.22422 -0.10838,0.40473 -0.243,0.40473 h -30.76448 c -0.13461,0 -0.24298,-0.18051 -0.24298,-0.40473 v -6.998 c 0,-0.22421 0.10838,-0.40472 0.24298,-0.40472 z" /></g></g></g></svg>
