<svg xmlns="http://www.w3.org/2000/svg" data-name="Layer 1" viewBox="0 0 64 64">
    <path fill="#fff" d="M6 63h16a1 1 0 0 0 1-1V50a1 1 0 0 0-1-1h-7v-5.06a9 9 0 0 0 0-17.88V22h35v4.06a9 9 0 0 0 0 17.88V49h-7a1 1 0 0 0-1 1v12a1 1 0 0 0 1 1h16a1 1 0 0 0 1-1V50a1 1 0 0 0-1-1h-7v-5.06a9 9 0 0 0 0-17.88V21a1 1 0 0 0-1-1H33v-4h7a1 1 0 0 0 1-1V3a1 1 0 0 0-1-1H24a1 1 0 0 0-1 1v12a1 1 0 0 0 1 1h7v4H14a1 1 0 0 0-1 1v5.06a9 9 0 0 0 0 17.88V49H6a1 1 0 0 0-1 1v12a1 1 0 0 0 1 1Zm52-12v10H44V51Zm0-16a7 7 0 1 1-7-7 7 7 0 0 1 7 7ZM25 4h14v10H25ZM7 35a7 7 0 1 1 7 7 7 7 0 0 1-7-7Zm0 16h14v10H7Z"/>
    <path fill="#fff" d="m17.24 31.35-5.14 6-1.27-1.9-1.66 1.1 2 3a1 1 0 0 0 .77.45H12a1 1 0 0 0 .76-.35l6-7ZM48.71 31.29l-1.42 1.42 2.3 2.29-2.3 2.29 1.42 1.42 2.29-2.3 2.29 2.3 1.42-1.42-2.3-2.29 2.3-2.29-1.42-1.42-2.29 2.3-2.29-2.3z"/>
</svg>
