<?xml version="1.0" encoding="UTF-8" standalone="no"?>
<!-- Created with Inkscape (http://www.inkscape.org/) -->

<svg
   width="80.947327"
   height="80.94735"
   viewBox="0 0 21.417313 21.417319"
   version="1.1"
   id="svg122121"
   xml:space="preserve"
   xmlns="http://www.w3.org/2000/svg"
   xmlns:svg="http://www.w3.org/2000/svg"><defs
     id="defs122118" /><g
     id="layer1"
     transform="translate(-92.65326,-71.719795)"><path
       d="m 103.36192,92.872537 c 5.41193,0 9.8649,-4.120661 10.3966,-9.399679 0.0569,-0.560179 -0.38928,-1.044399 -0.94947,-1.044399 -0.48422,0 -0.89249,0.360789 -0.93996,0.835525 -0.41776,4.329546 -4.07319,7.709628 -8.50717,7.709628 -2.96232,0 -5.573339,-1.509641 -7.10197,-3.797851 h 1.40521 c 0.5222,0 0.949452,-0.427252 0.949452,-0.949462 0,-0.5222 -0.427252,-0.949452 -0.949452,-0.949452 h -3.797855 c -0.52221,0 -0.949462,0.427252 -0.949462,0.949452 v 3.79785 c 0,0.522211 0.427252,0.949463 0.949462,0.949463 0.5222,0 0.949467,-0.427252 0.949467,-0.949463 V 88.43855 c 1.88942,2.677483 5.013156,4.433987 8.545148,4.433987 z m 0,-20.888157 c -5.411928,0 -9.864909,4.120671 -10.396604,9.399669 -0.04747,0.560178 0.389274,1.04441 0.949463,1.04441 0.484221,0 0.892498,-0.3608 0.939972,-0.835526 0.417758,-4.329546 4.073188,-7.709628 8.507169,-7.709628 2.96232,0 5.57334,1.509641 7.10197,3.797851 h -1.4052 c -0.52221,0 -0.94947,0.427252 -0.94947,0.949452 0,0.52221 0.42726,0.949473 0.94947,0.949473 h 3.79784 c 0.52221,0 0.94946,-0.427263 0.94946,-0.949473 v -3.79784 c 0,-0.5222 -0.42725,-0.949463 -0.94946,-0.949463 -0.5222,0 -0.94947,0.427263 -0.94947,0.949463 v 1.585599 c -1.88942,-2.677483 -5.01315,-4.433987 -8.54514,-4.433987 z"
       id="path131697"
       style="fill:none;fill-opacity:1;stroke:#acdf83;stroke-width:0.529167;stroke-dasharray:none;stroke-opacity:1" /><path
       id="path22561-2"
       style="fill:none;fill-opacity:1;stroke:#acdf83;stroke-width:0.396875;stroke-linecap:butt;stroke-dasharray:none;stroke-dashoffset:0;stroke-opacity:1"
       d="m 100.08689,82.523054 3.32687,-1.427188 3.37912,1.436339 m -3.39197,5.501474 v -2.822283 m 0.007,-8.380675 v 7.708282 m -3.433839,-1.332822 c 1.139359,1.612341 2.283329,3.221425 3.426649,4.830956 1.15025,-1.61673 2.30016,-3.233704 3.44348,-4.855342 -1.14664,0.679221 -2.2952,1.355177 -3.44348,2.031608 -1.14768,-0.677235 -2.29757,-1.350757 -3.442629,-2.032449 0.005,0.0084 0.0106,0.01682 0.016,0.02523 z m 2.848119,-5.431008 c -0.9521,1.582 -1.90508,3.16347 -2.854849,4.746866 1.130539,0.694605 2.278199,1.374971 3.440029,2.016511 1.15476,-0.642098 2.28763,-1.316864 3.41496,-2.006419 -0.81637,-1.435577 -1.69966,-2.835225 -2.54137,-4.257143 -0.29056,-0.482305 -0.58017,-0.965204 -0.87351,-1.445825 -0.21101,0.304325 -0.39001,0.631253 -0.58526,0.94601 z" /></g></svg>
