<?xml version="1.0" encoding="UTF-8" standalone="no"?>
<!-- Created with Inkscape (http://www.inkscape.org/) -->

<svg
   width="77.000031"
   height="77.000061"
   viewBox="0 0 20.372924 20.372933"
   version="1.1"
   id="svg122121"
   xml:space="preserve"
   xmlns:xlink="http://www.w3.org/1999/xlink"
   xmlns="http://www.w3.org/2000/svg"
   xmlns:svg="http://www.w3.org/2000/svg"><defs
     id="defs122118"><linearGradient
       id="linearGradient133174"><stop
         style="stop-color:#6ec853;stop-opacity:1;"
         offset="0.33458912"
         id="stop133170" /><stop
         style="stop-color:#ff55a6;stop-opacity:1;"
         offset="1"
         id="stop133172" /></linearGradient><linearGradient
       xlink:href="#linearGradient133174"
       id="linearGradient133176"
       x1="103.36354"
       y1="120.23585"
       x2="123.73645"
       y2="120.23585"
       gradientUnits="userSpaceOnUse"
       gradientTransform="translate(-5.4057537,-9.7273065)" /></defs><g
     id="layer1"
     transform="translate(-97.95778,-100.32207)"><path
       d="m 108.14425,120.43042 c 5.14133,0 9.37166,-3.91463 9.87677,-8.9297 0.0541,-0.53217 -0.36981,-0.99218 -0.90199,-0.99218 -0.46001,0 -0.84787,0.34275 -0.89297,0.79375 -0.39687,4.11307 -3.86953,7.32415 -8.08181,7.32415 -2.81421,0 -5.29468,-1.43416 -6.74688,-3.60796 h 1.33495 c 0.49609,0 0.90198,-0.40589 0.90198,-0.90199 0,-0.49609 -0.40589,-0.90198 -0.90198,-0.90198 h -3.607964 c -0.4961,0 -0.90199,0.40589 -0.90199,0.90198 v 3.60796 c 0,0.4961 0.40589,0.90199 0.90199,0.90199 0.49609,0 0.901994,-0.40589 0.901994,-0.90199 v -1.50632 c 1.79495,2.54361 4.7625,4.21229 8.1179,4.21229 z m 0,-19.84376 c -5.14134,0 -9.371674,3.91464 -9.876784,8.92969 -0.0451,0.53217 0.36981,0.99219 0.90199,0.99219 0.46001,0 0.847874,-0.34276 0.892974,-0.79375 0.39687,-4.11307 3.86953,-7.32415 8.08182,-7.32415 2.8142,0 5.29467,1.43416 6.74687,3.60796 h -1.33494 c -0.4961,0 -0.90199,0.40589 -0.90199,0.90198 0,0.4961 0.40589,0.902 0.90199,0.902 h 3.60795 c 0.4961,0 0.90199,-0.4059 0.90199,-0.902 v -3.60795 c 0,-0.49609 -0.40589,-0.90199 -0.90199,-0.90199 -0.49609,0 -0.90199,0.4059 -0.90199,0.90199 v 1.50632 c -1.79495,-2.54361 -4.7625,-4.21229 -8.11789,-4.21229 z m -0.79376,4.40171 c 0,-0.44198 0.3608,-0.79375 0.79376,-0.79375 0.43295,0 0.79375,0.35177 0.79375,0.79375 v 0.33375 c 0.96512,0.17137 1.57848,0.68551 1.94829,1.17258 0.30668,0.39688 0.14431,0.97415 -0.32471,1.17259 -0.32472,0.13531 -0.70356,0.0269 -0.92003,-0.25255 -0.25255,-0.34275 -0.70355,-0.69453 -1.44318,-0.69453 -0.6314,0 -1.6326,0.33375 -1.6326,1.25377 0,0.85689 0.7757,1.1816 2.38125,1.71378 2.16477,0.74865 2.71498,1.84907 2.71498,3.11186 0,2.36321 -2.25497,2.82322 -2.724,2.9044 v 0.33375 c 0,0.43296 -0.35178,0.79375 -0.79375,0.79375 -0.44198,0 -0.79376,-0.35177 -0.79376,-0.79375 v -0.37883 c -0.56825,-0.13531 -1.74083,-0.55022 -2.42634,-1.89418 -0.20745,-0.39688 0.0269,-0.92003 0.44197,-1.08239 0.36982,-0.1443 0.81179,-0.009 1.00121,0.34276 0.28864,0.55021 0.85689,1.23572 1.91221,1.23572 0.83885,0 1.78594,-0.43295 1.78594,-1.4522 0,-0.86591 -0.63139,-1.3169 -2.05653,-1.83104 -0.99219,-0.35177 -3.02166,-0.92904 -3.02166,-2.98558 0,-0.0902 0.009,-2.16477 2.3632,-2.66988 z"
       id="path131697"
       style="fill:none;fill-opacity:1;stroke:url(#linearGradient133176);stroke-width:0.529167;stroke-dasharray:none;stroke-opacity:1" /></g></svg>
