<?xml version="1.0" encoding="UTF-8" standalone="no"?>
<!-- Created with Inkscape (http://www.inkscape.org/) -->

<svg
   width="80.947327"
   height="96.947365"
   viewBox="0 0 21.417313 25.650657"
   version="1.1"
   id="svg122121"
   xml:space="preserve"
   xmlns="http://www.w3.org/2000/svg"
   xmlns:svg="http://www.w3.org/2000/svg"><defs
     id="defs122118" /><g
     id="layer1"
     transform="translate(-92.65326,-69.603134)"><path
       style="fill:none;fill-opacity:1;stroke:#acdf83;stroke-width:0.529167;stroke-dasharray:none;stroke-opacity:1"
       d="m 103.36192,69.867712 c -5.411928,0 -9.864909,4.120671 -10.396604,9.399669 -0.04747,0.560178 0.389274,1.04441 0.949463,1.04441 0.484221,0 0.892498,-0.3608 0.939972,-0.835526 0.417758,-4.329546 4.073188,-7.709628 8.507169,-7.709628 2.96232,0 5.57334,1.509641 7.10197,3.797851 h -1.4052 c -0.52221,0 -0.94947,0.427252 -0.94947,0.949452 0,0.52221 0.42726,0.949473 0.94947,0.949473 h 3.79784 c 0.52221,0 0.94946,-0.427263 0.94946,-0.949473 V 72.7161 c 0,-0.5222 -0.42725,-0.949463 -0.94946,-0.949463 -0.5222,0 -0.94947,0.427263 -0.94947,0.949463 v 1.585599 c -1.88942,-2.677483 -5.01315,-4.433987 -8.54514,-4.433987 z"
       id="path23321" /><path
       style="fill:none;fill-opacity:1;stroke:#acdf83;stroke-width:0.529167;stroke-dasharray:none;stroke-opacity:1"
       d="m 103.36192,94.989205 c 5.41193,0 9.8649,-4.120661 10.3966,-9.399679 0.0569,-0.560179 -0.38928,-1.044399 -0.94947,-1.044399 -0.48422,0 -0.89249,0.360789 -0.93996,0.835525 -0.41776,4.329546 -4.07319,7.709628 -8.50717,7.709628 -2.96232,0 -5.573339,-1.509641 -7.10197,-3.797851 h 1.40521 c 0.5222,0 0.949452,-0.427252 0.949452,-0.949462 0,-0.5222 -0.427252,-0.949452 -0.949452,-0.949452 h -3.797855 c -0.52221,0 -0.949462,0.427252 -0.949462,0.949452 v 3.79785 c 0,0.522211 0.427252,0.949463 0.949462,0.949463 0.5222,0 0.949467,-0.427252 0.949467,-0.949463 v -1.585599 c 1.88942,2.677483 5.013156,4.433987 8.545148,4.433987 z"
       id="path131697" /><path
       id="path22561-2"
       style="fill:none;fill-opacity:1;stroke:#acdf83;stroke-width:0.497975;stroke-linecap:butt;stroke-dasharray:none;stroke-dashoffset:0;stroke-opacity:1"
       d="m 98.554674,82.245563 4.905546,-2.104427 4.98261,2.11792 m -4.99151,-8.40699 v 11.366067 m -0.86366,-9.973449 c -1.40391,2.332702 -2.809094,4.664622 -4.209554,6.999383 1.667014,1.024213 3.359264,2.02743 5.072404,2.973399 1.70274,-0.946792 3.37319,-1.941751 5.03545,-2.958518 -1.20375,-2.116797 -2.50618,-4.180615 -3.74731,-6.277273 -0.42844,-0.711169 -0.85547,-1.423218 -1.288,-2.131905 -0.31116,0.448734 -0.5751,0.930797 -0.86299,1.394914 z m 0.85362,15.841418 v -4.161531 m -5.053252,-2.956742 c 1.680022,2.377438 3.366842,4.750077 5.052682,7.123373 1.69608,-2.383911 3.39166,-4.768185 5.07751,-7.159332 -1.69075,1.001529 -3.38433,1.998245 -5.07751,2.995661 -0.55215,-0.325814 -1.10463,-0.651045 -1.6571,-0.976302 -1.14084,-0.671637 -2.281603,-1.343383 -3.419144,-2.0206 0.0073,0.01241 0.01563,0.02482 0.0236,0.03721 z" /></g></svg>
