<?xml version="1.0" encoding="UTF-8" standalone="no"?>
<!-- Created with Inkscape (http://www.inkscape.org/) -->

<svg
   width="76.999977"
   height="77"
   viewBox="0 0 20.37291 20.372917"
   version="1.1"
   id="svg122121"
   xml:space="preserve"
   xmlns:xlink="http://www.w3.org/1999/xlink"
   xmlns="http://www.w3.org/2000/svg"
   xmlns:svg="http://www.w3.org/2000/svg"><defs
     id="defs122118"><linearGradient
       id="linearGradient162512"><stop
         style="stop-color:#6ec85e;stop-opacity:1;"
         offset="0.1558263"
         id="stop162508" /><stop
         style="stop-color:#ff2e7d;stop-opacity:1;"
         offset="1"
         id="stop162510" /></linearGradient><linearGradient
       xlink:href="#linearGradient162512"
       id="linearGradient162514"
       x1="165.31294"
       y1="78.727074"
       x2="185.68587"
       y2="78.727074"
       gradientUnits="userSpaceOnUse"
       gradientTransform="translate(-18.684823,36.9571)" /></defs><g
     id="layer1"
     transform="translate(-146.62813,-105.49772)"><path
       d="m 149.09758,114.58174 h 4.40971 c 1.21271,0 2.20488,-0.99219 2.20488,-2.20486 v -4.40972 c 0,-1.21267 -0.99217,-2.20486 -2.20488,-2.20486 h -4.40971 c -1.21266,0 -2.20487,0.99219 -2.20487,2.20486 v 4.40972 c 0,1.21267 0.99221,2.20486 2.20487,2.20486 z m 0,11.02431 h 4.40971 c 1.21271,0 2.20488,-0.99219 2.20488,-2.20486 v -4.40973 c 0,-1.21267 -0.99217,-2.20486 -2.20488,-2.20486 h -4.40971 c -1.21266,0 -2.20487,0.99219 -2.20487,2.20486 v 4.40973 c 0,1.21267 0.99221,2.20486 2.20487,2.20486 z m 8.81946,-17.63889 v 4.40972 c 0,1.21267 0.99217,2.20486 2.20484,2.20486 h 4.40975 c 1.21266,0 2.20483,-0.99219 2.20483,-2.20486 v -4.40972 c 0,-1.21267 -0.99217,-2.20486 -2.20483,-2.20486 h -4.40975 c -1.21267,0 -2.20484,0.99219 -2.20484,2.20486 z m 2.20484,17.63889 h 4.40975 c 1.21266,0 2.20483,-0.99219 2.20483,-2.20486 v -4.40973 c 0,-1.21267 -0.99217,-2.20486 -2.20483,-2.20486 h -4.40975 c -1.21267,0 -2.20484,0.99219 -2.20484,2.20486 v 4.40973 c 0,1.21267 0.99217,2.20486 2.20484,2.20486 z"
       id="path162499"
       style="fill:none;stroke:url(#linearGradient162514);stroke-width:0.529167;stroke-dasharray:none;stroke-opacity:1" /></g></svg>
