<?xml version="1.0" encoding="UTF-8" standalone="no"?>
<!-- Created with Inkscape (http://www.inkscape.org/) -->

<svg
   width="76.999977"
   height="77"
   viewBox="0 0 20.37291 20.372917"
   version="1.1"
   id="svg122121"
   xml:space="preserve"
   xmlns="http://www.w3.org/2000/svg"
   xmlns:svg="http://www.w3.org/2000/svg"><defs
     id="defs122118" /><g
     id="layer1"
     transform="translate(-146.62813,-105.49772)"><path
       d="m 149.09758,114.58174 h 4.40971 c 1.21271,0 2.20488,-0.99219 2.20488,-2.20486 v -4.40972 c 0,-1.21267 -0.99217,-2.20486 -2.20488,-2.20486 h -4.40971 c -1.21266,0 -2.20487,0.99219 -2.20487,2.20486 v 4.40972 c 0,1.21267 0.99221,2.20486 2.20487,2.20486 z m 0,11.02431 h 4.40971 c 1.21271,0 2.20488,-0.99219 2.20488,-2.20486 v -4.40973 c 0,-1.21267 -0.99217,-2.20486 -2.20488,-2.20486 h -4.40971 c -1.21266,0 -2.20487,0.99219 -2.20487,2.20486 v 4.40973 c 0,1.21267 0.99221,2.20486 2.20487,2.20486 z m 8.81946,-17.63889 v 4.40972 c 0,1.21267 0.99217,2.20486 2.20484,2.20486 h 4.40975 c 1.21266,0 2.20483,-0.99219 2.20483,-2.20486 v -4.40972 c 0,-1.21267 -0.99217,-2.20486 -2.20483,-2.20486 h -4.40975 c -1.21267,0 -2.20484,0.99219 -2.20484,2.20486 z m 2.20484,17.63889 h 4.40975 c 1.21266,0 2.20483,-0.99219 2.20483,-2.20486 v -4.40973 c 0,-1.21267 -0.99217,-2.20486 -2.20483,-2.20486 h -4.40975 c -1.21267,0 -2.20484,0.99219 -2.20484,2.20486 v 4.40973 c 0,1.21267 0.99217,2.20486 2.20484,2.20486 z"
       id="path162499"
       style="fill:none;stroke:#c7ff90;stroke-width:0.529167;stroke-dasharray:none;stroke-opacity:1" /></g></svg>
