<?xml version="1.0" encoding="UTF-8" standalone="no"?>
<!-- Created with Inkscape (http://www.inkscape.org/) -->

<svg
   width="77.29744"
   height="76.999977"
   viewBox="0 0 20.451614 20.372911"
   version="1.1"
   id="svg122121"
   xml:space="preserve"
   xmlns:xlink="http://www.w3.org/1999/xlink"
   xmlns="http://www.w3.org/2000/svg"
   xmlns:svg="http://www.w3.org/2000/svg"><defs
     id="defs122118"><linearGradient
       id="linearGradient176869"><stop
         style="stop-color:#c1ff68;stop-opacity:1;"
         offset="0"
         id="stop176865" /><stop
         style="stop-color:#22ffdb;stop-opacity:1;"
         offset="1"
         id="stop176867" /></linearGradient><linearGradient
       xlink:href="#linearGradient176869"
       id="linearGradient176841"
       x1="124.79323"
       y1="93.195206"
       x2="145.24484"
       y2="93.195206"
       gradientUnits="userSpaceOnUse" /></defs><g
     id="layer1"
     transform="translate(-124.79323,-83.008758)"><path
       d="m 142.22265,98.056916 c 0.57547,-1.002108 0.9426,-2.212579 0.50602,-3.621484 -0.52586,-1.706561 -2.02406,-3.026171 -3.81,-3.194843 -2.84756,-0.2778 -5.18913,2.053827 -4.91133,4.911327 0.1785,1.776015 1.4883,3.284138 3.19485,3.809998 1.41881,0.436566 2.61937,0.0695 3.62148,-0.50601 l 2.48048,2.480466 c 0.38696,0.38695 1.00211,0.38695 1.38904,0 0.38696,-0.38696 0.38696,-1.00211 0,-1.38907 z m -3.77029,0.09923 c -1.38907,0 -2.48047,-1.091403 -2.48047,-2.480467 0,-1.389064 1.0914,-2.480468 2.48047,-2.480468 1.38904,0 2.48044,1.091404 2.48044,2.480468 0,1.389064 -1.0914,2.480467 -2.48044,2.480467 z m -3.47269,2.976564 v 1.98437 c -5.47687,0 -9.92186,-4.444994 -9.92186,-9.921869 0,-5.476876 4.44499,-9.921875 9.92186,-9.921875 4.80222,0 8.80073,3.413123 9.72345,7.937498 h -2.05383 c -0.63499,-2.440781 -2.38125,-4.435076 -4.69305,-5.367731 v 0.406796 c 0,1.091404 -0.89295,1.984373 -1.98435,1.984373 h -1.98439 v 1.984376 c 0,0.545704 -0.44648,0.992186 -0.99218,0.992186 h -1.98438 v 1.984377 h 1.98438 v 2.976563 h -0.99221 l -4.75256,-4.752578 c -0.129,0.575467 -0.2085,1.160857 -0.2085,1.776015 0,4.375545 3.56194,7.937499 7.93747,7.937499 z"
       id="path155679"
       style="fill:none;fill-opacity:1;stroke:url(#linearGradient176841);stroke-width:0.529167;stroke-dasharray:none;stroke-opacity:1" /></g></svg>
