<?xml version="1.0" encoding="UTF-8" standalone="no"?>
<!-- Created with Inkscape (http://www.inkscape.org/) -->

<svg
   width="80.254036"
   height="130.33556"
   viewBox="0 0 21.23388 34.484616"
   version="1.1"
   id="svg122121"
   xml:space="preserve"
   xmlns="http://www.w3.org/2000/svg"
   xmlns:svg="http://www.w3.org/2000/svg"><defs
     id="defs122118" /><g
     id="layer1"
     transform="translate(-91.825066,-15.60753)"><path
       id="path22561"
       style="fill:none;fill-opacity:1;stroke:#acdf83;stroke-width:0.529167;stroke-linecap:butt;stroke-dasharray:none;stroke-dashoffset:0;stroke-opacity:1"
       d="m 92.544349,33.132942 9.956681,-4.27129 10.11305,4.29868 M 102.46256,49.625155 V 41.17862 m 0.021,-25.081705 V 39.166279 M 92.206747,35.177407 c 3.409897,4.825419 6.833551,9.64109 10.255313,14.458097 3.44245,-4.838552 6.88391,-9.677837 10.30564,-14.531079 -3.43165,2.032773 -6.86907,4.055779 -10.30564,6.080202 -3.434816,-2.026831 -6.876205,-4.042549 -10.303129,-6.082719 0.01594,0.02516 0.03187,0.05034 0.04782,0.0755 z m 8.523863,-16.253933 c -2.849441,4.734613 -5.701514,9.46764 -8.543996,14.206433 3.383472,2.078815 6.818207,4.115016 10.295336,6.035016 3.45596,-1.921671 6.84643,-3.941111 10.22031,-6.004816 -2.44322,-4.296396 -5.08675,-8.485267 -7.60583,-12.740787 -0.8696,-1.443442 -1.73633,-2.888663 -2.61424,-4.327066 -0.6315,0.910782 -1.16723,1.889214 -1.75158,2.83122 z" /></g></svg>
