<?xml version="1.0" encoding="UTF-8" standalone="no"?>
<!-- Created with Inkscape (http://www.inkscape.org/) -->

<svg
   width="1146.08"
   height="216.54128"
   viewBox="0 0 303.23365 57.293212"
   version="1.1"
   id="svg5"
   xml:space="preserve"
   xmlns="http://www.w3.org/2000/svg"
   xmlns:svg="http://www.w3.org/2000/svg"><defs
     id="defs2" /><g
     id="layer1"
     transform="rotate(12.956337,1278.7384,-372.58399)"><path
       style="fill:none;fill-opacity:0.203468;stroke:#454b53;stroke-width:0.529167;stroke-dasharray:4.23333, 0.529167;stroke-dashoffset:0;stroke-opacity:1"
       d="m 134.2627,297.36234 c 30.26103,10.45463 60.52109,20.90893 90.60453,7.40682 30.08344,-13.50211 59.98756,-50.95866 90.95829,-66.36924 30.97073,-15.41058 63.00468,-8.77332 95.03892,-2.13601"
       id="path6520"
       transform="translate(5.509287e-6)" /></g><g
     id="layer2"
     transform="translate(-141.75301,-130.33433)"><g
       id="g35531"
       transform="rotate(12.956337,914.19346,383.42226)"><g
         id="g37251"
         transform="translate(-11.417672,32.746905)"><g
           id="g37281" /></g><path
         style="display:inline;fill:none;fill-opacity:1;stroke:#0fff99;stroke-width:0.618973;stroke-dasharray:none;stroke-opacity:1"
         d="m 385.74889,234.98429 0.58993,0.5921 10.1888,10.2263"
         id="path35472"
         transform="translate(8.4617567,28.551808)" /><path
         style="display:inline;fill:none;fill-opacity:1;stroke:#0fff99;stroke-width:0.618973;stroke-dasharray:none;stroke-opacity:1"
         d="m 396.51877,234.99314 -10.76103,10.8007"
         id="path35472-7"
         transform="translate(8.4617567,28.551808)" /><path
         id="path21290"
         style="display:inline;fill:#363a41;fill-opacity:1;stroke:#d35aff;stroke-width:0.74882;stroke-dasharray:none;stroke-opacity:1"
         d="m 305.13101,240.13584 a 6.24017,6.2401758 77.043663 0 1 -4.68219,7.48041 6.24017,6.2401758 77.043663 0 1 -7.48042,-4.68221 6.24017,6.2401758 77.043663 0 1 4.68221,-7.4804 6.24017,6.2401758 77.043663 0 1 7.4804,4.6822 z"
         transform="translate(8.4617567,28.551808)" /><path
         style="display:inline;fill:none;fill-opacity:1;stroke:#90ff23;stroke-width:5.12771;stroke-dasharray:none;stroke-opacity:1"
         id="path26641"
         d="m 578.06382,859.88252 c -1.15963,6.93954 -76.94036,35.29289 -82.37037,30.81886 -5.43,-4.47403 7.90564,-84.27875 14.49527,-86.74426 6.58962,-2.46551 69.03472,48.98585 67.8751,55.9254 z"
         transform="matrix(0.14135402,0.02477559,-0.01666779,0.15112612,55.088268,185.80537)" /><rect
         style="display:inline;fill:#363a41;fill-opacity:1;stroke:#77bbff;stroke-width:0.803355;stroke-dasharray:none;stroke-opacity:1"
         id="rect26697"
         width="12.421146"
         height="12.421146"
         x="121.59334"
         y="340.22873"
         rx="1.2421145"
         transform="rotate(-12.92943,130.21866,-23.062458)" /></g></g></svg>
