<?xml version="1.0" encoding="UTF-8" standalone="no"?>
<!-- Created with Inkscape (http://www.inkscape.org/) -->

<svg
   width="500.00003mm"
   height="234.51677mm"
   viewBox="0 0 500.00003 234.51676"
   version="1.1"
   id="svg280"
   sodipodi:docname="logo.svg"
   xmlns:inkscape="http://www.inkscape.org/namespaces/inkscape"
   xmlns:sodipodi="http://sodipodi.sourceforge.net/DTD/sodipodi-0.dtd"
   xmlns:xlink="http://www.w3.org/1999/xlink"
   xmlns="http://www.w3.org/2000/svg"
   xmlns:svg="http://www.w3.org/2000/svg">
  <sodipodi:namedview
     id="namedview282"
     pagecolor="#ffffff"
     bordercolor="#000000"
     borderopacity="0.25"
     inkscape:showpageshadow="2"
     inkscape:pageopacity="0.0"
     inkscape:pagecheckerboard="0"
     inkscape:deskcolor="#d1d1d1"
     inkscape:document-units="mm"
     showgrid="false" />
  <defs
     id="defs277">
    <linearGradient
       xlink:href="#linearGradient1532"
       id="linearGradient1534"
       x1="167.39159"
       y1="250"
       x2="332.6084"
       y2="250"
       gradientUnits="userSpaceOnUse"
       gradientTransform="matrix(0.36482801,0,0,0.36482801,257.62436,92.997349)" />
    <linearGradient
       id="linearGradient1532">
      <stop
         style="stop-color:#2abfff;stop-opacity:1;"
         offset="0.15952571"
         id="stop1528" />
      <stop
         style="stop-color:#f26ebe;stop-opacity:1;"
         offset="0.59709966"
         id="stop1883" />
      <stop
         style="stop-color:#fe5658;stop-opacity:1;"
         offset="0.86308903"
         id="stop1530" />
    </linearGradient>
  </defs>
  <g
     inkscape:label="Layer 1"
     inkscape:groupmode="layer"
     id="layer1"
     transform="translate(-3.803456e-5,-132.74162)">
    <g
       id="g447"
       transform="matrix(3.779528,0,0,3.779528,-1068.4178,-446.20536)">
      <path
         id="path1503"
         style="fill-opacity:0;stroke:url(#linearGradient1534);stroke-width:5.42179"
         d="m 377.14508,184.20432 a 28.313721,28.313717 0 0 1 -28.31372,28.31371 28.313721,28.313717 0 0 1 -28.31372,-28.31371 28.313721,28.313717 0 0 1 28.31372,-28.31372 28.313721,28.313717 0 0 1 28.31372,28.31372 z" />
      <path
         id="rect3184"
         style="fill:#2abfff;fill-opacity:1;stroke-width:0.504227"
         d="m 282.96657,181.68166 h 35.58316 c 0.1557,0 0.28105,0.12535 0.28105,0.28105 v 4.85968 c 0,0.15571 -0.12535,0.28106 -0.28105,0.28106 h -35.58316 c -0.1557,0 -0.28105,-0.12535 -0.28105,-0.28106 v -4.85968 c 0,-0.1557 0.12535,-0.28105 0.28105,-0.28105 z" />
      <path
         id="rect3184-3"
         style="fill:#fe565a;stroke-width:0.50431"
         d="m 379.11296,181.68166 h 35.58316 c 0.15571,0 0.28106,0.12535 0.28106,0.28105 v 4.85968 c 0,0.15571 -0.12535,0.28106 -0.28106,0.28106 h -35.58316 c -0.1557,0 -0.28105,-0.12535 -0.28105,-0.28106 v -4.85968 c 0,-0.1557 0.12535,-0.28105 0.28105,-0.28105 z" />
    </g>
  </g>
</svg>
