<?xml version="1.0" encoding="UTF-8" standalone="no"?>
<!-- Created with Inkscape (http://www.inkscape.org/) -->

<svg
   width="65.65387"
   height="76.986595"
   viewBox="0 0 17.370919 20.36937"
   version="1.1"
   id="svg122121"
   xml:space="preserve"
   xmlns:xlink="http://www.w3.org/1999/xlink"
   xmlns="http://www.w3.org/2000/svg"
   xmlns:svg="http://www.w3.org/2000/svg"><defs
     id="defs122118"><linearGradient
       id="linearGradient146138"><stop
         style="stop-color:#6ec453;stop-opacity:1;"
         offset="0.24576977"
         id="stop146134" /><stop
         style="stop-color:#ff2e80;stop-opacity:1;"
         offset="0.84607881"
         id="stop146136" /></linearGradient><linearGradient
       xlink:href="#linearGradient146138"
       id="linearGradient146140"
       x1="127.64101"
       y1="55.571766"
       x2="145.01193"
       y2="55.571766"
       gradientUnits="userSpaceOnUse"
       gradientTransform="translate(-31.649478,62.438416)" /></defs><g
     id="layer1"
     transform="translate(-95.991532,-107.8255)"><path
       d="m 104.05593,108.29355 c 0.3684,-0.27367 0.86314,-0.27367 1.24208,0 1.28418,0.92629 4.1157,3.77886 4.1157,10.66292 0,2.27364 -0.82101,5.01042 -1.43153,6.68406 -0.1472,0.41052 -0.53684,0.6842 -0.97892,0.6842 h -4.64199 c -0.44212,0 -0.8421,-0.27367 -0.98946,-0.6842 -0.61052,-1.67364 -1.431578,-4.41042 -1.431578,-6.68406 0,-6.88406 2.831518,-9.73663 4.115698,-10.66292 z m 2.72629,8.5577 c 0,-1.15786 -0.94737,-2.10521 -2.10523,-2.10521 -1.15786,0 -2.10523,0.94735 -2.10523,2.10521 0,1.15787 0.94737,2.10522 2.10523,2.10522 1.15786,0 2.10523,-0.94735 2.10523,-2.10522 z m -6.64199,10.02083 c -0.505258,-1.2947 -1.599938,-4.38937 -1.757838,-7.23141 l -1.18946,0.78945 c -0.58947,0.39999 -0.93682,1.05261 -0.93682,1.75786 v 4.6841 c 0,0.74736 0.74738,1.25261 1.44208,0.97893 z m 12.95764,0 v -4.6841 c 0,-0.70525 -0.34731,-1.35787 -0.93682,-1.74733 l -1.18945,-0.78946 c -0.15794,2.83152 -1.26313,5.93671 -1.75788,7.23142 l 2.44208,0.97893 c 0.6947,0.26317 1.44207,-0.24208 1.44207,-0.98946 z"
       id="path143947"
       style="fill:none;stroke:url(#linearGradient146140);stroke-width:0.529167;stroke-dasharray:none;stroke-opacity:1" /></g></svg>
