<?xml version="1.0" encoding="UTF-8" standalone="no"?>
<!-- Created with Inkscape (http://www.inkscape.org/) -->

<svg
   width="65.653923"
   height="76.986595"
   viewBox="0 0 17.370933 20.36937"
   version="1.1"
   id="svg122121"
   xml:space="preserve"
   xmlns:xlink="http://www.w3.org/1999/xlink"
   xmlns="http://www.w3.org/2000/svg"
   xmlns:svg="http://www.w3.org/2000/svg"><defs
     id="defs122118"><linearGradient
       id="linearGradient146138"><stop
         style="stop-color:#81ff36;stop-opacity:1;"
         offset="0"
         id="stop146134" /><stop
         style="stop-color:#22ffdb;stop-opacity:1;"
         offset="0.61282223"
         id="stop146136" /></linearGradient><linearGradient
       xlink:href="#linearGradient146138"
       id="linearGradient146140"
       x1="127.64101"
       y1="55.571766"
       x2="145.01193"
       y2="55.571766"
       gradientUnits="userSpaceOnUse" /></defs><g
     id="layer1"
     transform="translate(-127.641,-45.387077)"><path
       d="m 135.70541,45.855131 c 0.3684,-0.273671 0.86314,-0.273671 1.24208,0 1.28418,0.926294 4.1157,3.778864 4.1157,10.662924 0,2.273634 -0.82101,5.010414 -1.43153,6.684063 -0.1472,0.410516 -0.53684,0.684195 -0.97892,0.684195 h -4.64199 c -0.44212,0 -0.8421,-0.273671 -0.98946,-0.684195 -0.61052,-1.673649 -1.43158,-4.410429 -1.43158,-6.684063 0,-6.88406 2.83152,-9.73663 4.1157,-10.662924 z m 2.72629,8.557705 c 0,-1.157866 -0.94737,-2.105214 -2.10523,-2.105214 -1.15786,0 -2.10523,0.947348 -2.10523,2.105214 0,1.157871 0.94737,2.105219 2.10523,2.105219 1.15786,0 2.10523,-0.947348 2.10523,-2.105219 z m -6.64199,10.020832 c -0.50526,-1.294706 -1.59994,-4.389375 -1.75784,-7.231418 l -1.18946,0.789454 c -0.58947,0.399993 -0.93682,1.052611 -0.93682,1.75786 v 4.684104 c 0,0.747356 0.74738,1.252608 1.44208,0.978928 z m 12.95764,0 v -4.684104 c 0,-0.705249 -0.34731,-1.357867 -0.93682,-1.747333 l -1.18945,-0.789455 c -0.15794,2.831517 -1.26313,5.936712 -1.75788,7.231419 l 2.44208,0.978928 c 0.6947,0.263169 1.44207,-0.242084 1.44207,-0.989455 z"
       id="path143947"
       style="fill:none;stroke:url(#linearGradient146140);stroke-width:0.529167;stroke-dasharray:none;stroke-opacity:1" /></g></svg>
