<?xml version="1.0" encoding="UTF-8" standalone="no"?>
<!-- Created with Inkscape (http://www.inkscape.org/) -->

<svg
   width="63.890778"
   height="77.031609"
   viewBox="0 0 16.904435 20.38128"
   version="1.1"
   id="svg122121"
   xml:space="preserve"
   xmlns:xlink="http://www.w3.org/1999/xlink"
   xmlns="http://www.w3.org/2000/svg"
   xmlns:svg="http://www.w3.org/2000/svg"><defs
     id="defs122118"><linearGradient
       id="linearGradient161637"><stop
         style="stop-color:#6ec853;stop-opacity:1;"
         offset="0.3335734"
         id="stop161633" /><stop
         style="stop-color:#ff55a6;stop-opacity:1;"
         offset="1"
         id="stop161635" /></linearGradient><linearGradient
       xlink:href="#linearGradient161637"
       id="linearGradient161639"
       x1="141.96579"
       y1="127.87049"
       x2="159.25079"
       y2="127.87049"
       gradientUnits="userSpaceOnUse" /></defs><g
     id="layer1"
     transform="translate(-142.15608,-117.67727)"><path
       d="m 149.87138,118.09948 -6.36815,2.82927 c -0.65501,0.29123 -1.08257,0.94614 -1.08257,1.66483 v 4.27576 c 0,5.04905 3.49339,9.77059 8.18763,10.91684 4.69425,-1.14625 8.18764,-5.86779 8.18764,-10.91684 v -4.27576 c 0,-0.71869 -0.4276,-1.3737 -1.08261,-1.66483 l -6.36815,-2.82927 c -0.46397,-0.20939 -1.00981,-0.20939 -1.47379,0 z m 0.73691,9.67051 h 6.36815 c -0.48216,3.7481 -2.98392,7.08684 -6.36815,8.13303 v -8.12392 h -6.36818 v -5.18552 l 6.36818,-2.82927 z"
       id="path158920"
       style="fill:none;stroke:url(#linearGradient161639);stroke-width:0.529167;stroke-dasharray:none;stroke-opacity:1" /></g></svg>
