<svg
   width="400.26569"
   height="1610.0126"
   viewBox="-46 0 200 425.9825"
   version="1.1"
   id="svg192"
   xmlns="http://www.w3.org/2000/svg">
  <g
     id="layer1"
     transform="translate(-210.3086,-52.916667)">
    <g
       id="layer1-2-9-56"
       transform="matrix(-0.32616618,0,0,0.33320274,556.01334,281.06982)"
       style="stroke:#414650;stroke-width:1.58645;stroke-dasharray:none;stroke-opacity:1"
           >
      <path
         style="fill:none;fill-opacity:1;stroke:#414650;stroke-width:2.24846;stroke-dasharray:none;stroke-opacity:1"
         d="m 1054.9872,154.63801 v 42.44872 l -0.3515,25.96032 c -0.7242,14.35901 -18.0922,13.42702 -26.5269,13.57768 l -264.86864,0.77878 c -5.60316,0.19783 -19.60284,-1.30486 -22.24547,16.52173 l -1.04873,59.33768"
         id="path5853-3-2-2"

              />
    </g>
    <circle
       style="fill:#414650;fill-opacity:1;stroke:none;stroke-width:0.522998;stroke-linecap:square;stroke-dasharray:none;stroke-opacity:1"
       id="path109785-2-0-3-9"
       cx="211.89609"
       cy="332.31668"
       r="1.5875" />
    <circle
       style="fill:#414650;fill-opacity:1;stroke:none;stroke-width:0.522998;stroke-linecap:square;stroke-dasharray:none;stroke-opacity:1"
       id="path109785-2-0-3-0-1"
       cx="314.62473"
       cy="384.70755"
       r="1.5875" />
    <g
       id="layer1-2-9-5"
       transform="matrix(-0.32616618,0,0,-0.33320338,556.01334,343.35056)"
       style="stroke:#414650;stroke-width:1.58645;stroke-dasharray:none;stroke-opacity:1"

         >
      <path
         style="fill:none;fill-opacity:1;stroke:#414650;stroke-width:2.24846;stroke-dasharray:none;stroke-opacity:1"
         d="m 1054.9872,154.63801 v 42.44872 l -0.3515,25.96032 c -0.7242,14.35901 -18.0922,13.42702 -26.5269,13.57768 l -264.86864,0.77878 c -5.60316,0.19783 -19.60284,-1.30486 -22.24547,16.52173 l -1.04873,59.33768"
         id="path5853-3-2-5"

              />
    </g>
    <circle
       style="fill:#414650;fill-opacity:1;stroke:none;stroke-width:0.522999;stroke-linecap:square;stroke-dasharray:none;stroke-opacity:1"
       id="path109785-2-0-3-4"
       cx="211.89609"
       cy="-292.10333"
       transform="scale(1,-1)"
       r="1.5875" />
    <circle
       style="fill:#414650;fill-opacity:1;stroke:none;stroke-width:0.522999;stroke-linecap:square;stroke-dasharray:none;stroke-opacity:1"
       id="path109785-2-0-3-0-7"
       cx="314.62473"
       cy="-239.71249"
       transform="scale(1,-1)"
       r="1.5875" />
    <g
       id="layer1-2-9-5-9"
       transform="matrix(-0.32616618,0,0,-0.33320329,556.01333,528.55858)"
       style="stroke:#414650;stroke-width:1.58645;stroke-dasharray:none;stroke-opacity:1"

         >
      <path
         style="fill:none;fill-opacity:1;stroke:#414650;stroke-width:2.24846;stroke-dasharray:none;stroke-opacity:1"
         d="m 1054.9872,154.63801 v 42.44872 l -0.3515,25.96032 c -0.7242,14.35901 -18.0922,13.42702 -26.5269,13.57768 l -264.86864,0.77878 c -5.60316,0.19783 -19.60284,-1.30486 -22.24547,16.52173 l -1.04873,59.33768"
         id="path5853-3-2-5-2"

              />
    </g>
    <circle
       style="fill:#414650;fill-opacity:1;stroke:none;stroke-width:0.522999;stroke-linecap:square;stroke-dasharray:none;stroke-opacity:1"
       id="path109785-2-0-3-4-0"
       cx="211.89609"
       cy="-477.31168"
       transform="scale(1,-1)"
       r="1.5875" />
    <circle
       style="fill:#414650;fill-opacity:1;stroke:none;stroke-width:0.522999;stroke-linecap:square;stroke-dasharray:none;stroke-opacity:1"
       id="path109785-2-0-3-0-7-2"
       cx="314.62473"
       cy="-424.92084"
       transform="scale(1,-1)"

           r="1.5875" />
    <g
       id="layer1-2"
       transform="matrix(0.33358984,0,0,0.33040762,-88.166176,4.4541324)"
       style="stroke:#414650;stroke-width:2.37967;stroke-dasharray:none;stroke-opacity:1"
           >
      <path
         style="fill:none;fill-opacity:1;stroke:#414650;stroke-width:2.37967;stroke-dasharray:none;stroke-opacity:1"
         d="m 1056.5436,154.61765 v 42.45161 l -0.175,25.96209 c -0.3605,14.35997 -9.0063,13.42791 -13.2051,13.57859 l -131.85188,0.77883 c -4.91631,0.16357 -10.20116,1.44392 -10.40266,16.41007 l -1.19322,59.45451"
         id="path5853-3"

                  />
    </g>
    <g
       id="layer1-2-9"
       transform="matrix(-0.32616619,0,0,0.33320421,556.01333,95.861241)"
       style="stroke:#414650;stroke-width:1.58645;stroke-dasharray:none;stroke-opacity:1"

         >
      <path
         style="fill:none;fill-opacity:1;stroke:#414650;stroke-width:2.24846;stroke-dasharray:none;stroke-opacity:1"
         d="m 1054.9872,154.63801 v 42.44872 l -0.3515,25.96032 c -0.7242,14.35901 -18.0922,13.42702 -26.5269,13.57768 l -264.86864,0.77878 c -5.60316,0.19783 -19.60284,-1.30486 -22.24547,16.52173 l -1.04873,59.33768"
         id="path5853-3-2"

              />
    </g>
    <circle
       style="fill:#414650;fill-opacity:1;stroke:none;stroke-width:0.526693;stroke-linecap:square;stroke-dasharray:none;stroke-opacity:1"
       id="path109785-2-0"
       cx="211.93141"
       cy="106.92162"
       r="1.5875" />
    <circle
       style="fill:#414650;fill-opacity:1;stroke:none;stroke-width:0.526693;stroke-linecap:square;stroke-dasharray:none;stroke-opacity:1"
       id="path109785-2-0-36"
       cx="264.31857"
       cy="54.504166"
       r="1.5875" />
    <circle
       style="fill:#414650;fill-opacity:1;stroke:none;stroke-width:0.522999;stroke-linecap:square;stroke-dasharray:none;stroke-opacity:1"
       id="path109785-2-0-3"
       cx="211.89609"
       cy="147.10834"
       r="1.5875" />
    <circle
       style="fill:#414650;fill-opacity:1;stroke:none;stroke-width:0.522999;stroke-linecap:square;stroke-dasharray:none;stroke-opacity:1"
       id="path109785-2-0-3-0"
       cx="314.62473"
       cy="199.49916"
       r="1.5875" />
  </g>
</svg>
